{"title":"Stella Blómkvist S01 E03 - 720p x264 - ICE (ENG SUBS) [BRSHNKV]","magnet":"magnet:?xt=urn:btih:a68e21e79e1997dfbb41993a213d17aba01edec4&dn=Stella+Blo%CC%81mkvist+S01+E03+-+720p+x264+-+ICE+%28ENG+SUBS%29+%5BBRSHNKV%5D&tr=udp%3A%2F%2Ftracker.leechers-paradise.org%3A6969&tr=udp%3A%2F%2Fzer0day.ch%3A1337&tr=udp%3A%2F%2Fopen.demonii.com%3A1337&tr=udp%3A%2F%2Ftracker.coppersurfer.tk%3A6969&tr=udp%3A%2F%2Fexodus.desync.com%3A6969","uploader":"BRSHNKV","categoryP":"video","categoryS":"hd___tv_shows","size":"581296217","seeders":"23","leechers":"6","description":"Video \r\nID : 1 \r\nFormat : AVC \r\nFormat/Info : Advanced Video Codec \r\nFormat profile : Main@L4 \r\nFormat settings, CABAC : Yes \r\nFormat settings, ReFrames : 8 frames \r\nCodec ID : avc1 \r\nCodec ID/Info : Advanced Video Coding \r\nDuration : 43mn 47s \r\nBit rate : 1 600 Kbps \r\nWidth : 1 280 pixels \r\nHeight : 720 pixels \r\nDisplay aspect ratio : 16:9 \r\nFrame rate mode : Constant \r\nFrame rate : 25.000 fps \r\nColor space : YUV \r\nChroma subsampling : 4:2:0 \r\nBit depth : 8 bits \r\nScan type : Progressive \r\nBits/(Pixel*Frame) : 0.069 \r\nStream size : 501 MiB (90%) \r\nWriting library : x264 core 148 r2708 86b7198 \r\nEncoded date : UTC 2018-06-02 15:58:19 \r\nTagged date : UTC 2018-06-02 15:58:19 \r\nColor range : Limited \r\nColor primaries : BT.709 \r\nTransfer characteristics : BT.709 \r\nMatrix coefficients : BT.709 \r\n\r\nAudio \r\nID : 2 \r\nFormat : AAC \r\nFormat/Info : Advanced Audio Codec \r\nFormat profile : LC \r\nCodec ID : 40 \r\nDuration : 43mn 47s \r\nBit rate mode : Variable \r\nBit rate : 164 Kbps \r\nChannel(s) : 2 channels \r\nChannel positions : Front: L R \r\nSampling rate : 48.0 KHz \r\nCompression mode : Lossy \r\nStream size : 51.5 MiB (9%) \r\nTitle : Stereo / Stereo \r\nLanguage : Icelandic \r\nEncoded date : UTC 2018-06-02 15:58:19 \r\nTagged date : UTC 2018-06-02 15:58:19","last_updated":"2018-06-08T12:10:11.482Z","parsed":{"xt":"urn:btih:a68e21e79e1997dfbb41993a213d17aba01edec4","dn":"Stella Blómkvist S01 E03 - 720p x264 - ICE (ENG SUBS) [BRSHNKV]","tr":["udp://exodus.desync.com:6969","udp://open.demonii.com:1337","udp://tracker.coppersurfer.tk:6969","udp://tracker.leechers-paradise.org:6969","udp://zer0day.ch:1337"],"infoHash":"a68e21e79e1997dfbb41993a213d17aba01edec4","infoHashBuffer":{"type":"Buffer","data":[166,142,33,231,158,25,151,223,187,65,153,58,33,61,23,171,160,30,222,196]},"name":"Stella Blómkvist S01 E03 - 720p x264 - ICE (ENG SUBS) [BRSHNKV]","announce":["udp://exodus.desync.com:6969","udp://open.demonii.com:1337","udp://tracker.coppersurfer.tk:6969","udp://tracker.leechers-paradise.org:6969","udp://zer0day.ch:1337"],"urlList":[]}}